<svg height="16" width="16" xmlns="http://www.w3.org/2000/svg"><path d="M9 9h-1c.55 0 1-.45 1-1v-1c0-.55-.45-1-1-1h-1c-.55 0-1 .45-1 1v1c0 .55.45 1 1 1h-1c-.55 0-1 .45-1 1v2h1v3c0 .55.45 1 1 1h1c.55 0 1-.45 1-1v-3h1v-2c0-.55-.45-1-1-1zm-2-2h1v1h-1v-1zm2 4h-1v4h-1v-4h-1v-1h3v1zm2.09-3.5c0-1.98-1.61-3.59-3.59-3.59s-3.59 1.61-3.59 3.59c0 .28.03.55.09.81v1.98c-.61-.77-1-1.73-1-2.8 0-2.48 2.02-4.5 4.5-4.5s4.5 2.02 4.5 4.5c0 1.06-.39 2.03-1 2.8v-1.98c.06-.27.09-.53.09-.81zm3.91 0c0 2.88-1.63 5.38-4 6.63v-1.05c1.86-1.16 3.09-3.22 3.09-5.58 0-3.64-2.95-6.59-6.59-6.59s-6.59 2.95-6.59 6.59c0 2.36 1.23 4.42 3.09 5.58v1.05c-2.37-1.25-4-3.75-4-6.63 0-4.14 3.36-7.5 7.5-7.5s7.5 3.36 7.5 7.5z"/></svg>