<svg height="16" width="14" xmlns="http://www.w3.org/2000/svg"><path d="M12 2h-1v1.5c0 .28-.22.5-.5.5h-2c-.28 0-.5-.22-.5-.5v-1.5h-3v1.5c0 .28-.22.5-.5.5h-2c-.28 0-.5-.22-.5-.5v-1.5h-1c-.55 0-1 .45-1 1v11c0 .55.45 1 1 1h11c.55 0 1-.45 1-1v-11c0-.55-.45-1-1-1zm0 12h-11v-9h11v9zm-8-11h-1v-2h1v2zm6 0h-1v-2h1v2zm-5 4h-1v-1h1v1zm2 0h-1v-1h1v1zm2 0h-1v-1h1v1zm2 0h-1v-1h1v1zm-8 2h-1v-1h1v1zm2 0h-1v-1h1v1zm2 0h-1v-1h1v1zm2 0h-1v-1h1v1zm2 0h-1v-1h1v1zm-8 2h-1v-1h1v1zm2 0h-1v-1h1v1zm2 0h-1v-1h1v1zm2 0h-1v-1h1v1zm2 0h-1v-1h1v1zm-8 2h-1v-1h1v1zm2 0h-1v-1h1v1zm2 0h-1v-1h1v1zm2 0h-1v-1h1v1z"/></svg>