<svg height="16" width="14" xmlns="http://www.w3.org/2000/svg"><path d="M3 5c0-.55.45-1 1-1s1 .45 1 1-.45 1-1 1-1-.45-1-1zm8 0c0-.55-.45-1-1-1s-1 .45-1 1 .45 1 1 1 1-.45 1-1zm0 6c0-.55-.45-1-1-1s-1 .45-1 1 .45 1 1 1 1-.45 1-1zm2-10h-8v2.17c.36.19.64.47.83.83h2.34c.42-.78 1.33-1.28 2.34-1.05.75.19 1.36.8 1.53 1.55.31 1.38-.72 2.59-2.05 2.59-.8 0-1.48-.44-1.83-1.09h-2.33c-.42.8-1.33 1.28-2.34 1.03-.73-.17-1.34-.78-1.52-1.52-.25-1.02.23-1.92 1.03-2.34v-2.17h-2c-.55 0-1 .45-1 1v12c0 .55.45 1 1 1l5-5h2.17c.42-.78 1.33-1.28 2.34-1.05.75.19 1.36.8 1.53 1.55.31 1.38-.72 2.59-2.05 2.59-.8 0-1.48-.44-1.83-1.09h-1.17l-2.99 3h9c.55 0 1-.45 1-1v-12c0-.55-.45-1-1-1z"/></svg>