<svg height="16" width="12" xmlns="http://www.w3.org/2000/svg"><path d="M8.5 1h-7.5c-.55 0-1 .45-1 1v12c0 .55.45 1 1 1h10c.55 0 1-.45 1-1v-9.5l-3.5-3.5zm-7.5 1h4c-.11.03-.2.09-.31.2-.09.09-.17.25-.23.47-.11.39-.14.89-.09 1.47s.17 1.17.34 1.8c-.23.73-.61 1.61-1.11 2.66s-.8 1.66-.91 1.84c-.14.05-.36.14-.69.3-.33.14-.66.36-1 .64v-9.38zm4.42 4.8c.45 1.13.84 1.83 1.17 2.09s.64.45.94.53c-.64.09-1.23.2-1.81.33-.56.13-1.17.33-1.81.59.02-.02.22-.44.61-1.25s.7-1.58.91-2.3zm5.58 7.2h-9.5l-.17-.03c.2-.06.45-.2.73-.44.45-.38 1.05-1.16 1.78-2.38.31-.13.58-.23.81-.31l.42-.14c.45-.13.94-.23 1.44-.33.5-.08 1-.16 1.48-.2.45.22.91.39 1.39.53.48.13.91.2 1.23.23l.38-.03v3.09zm0-4.86c-.19-.11-.41-.2-.64-.28-.23-.06-.48-.09-.75-.11-.39 0-.8.03-1.23.08-.23-.06-.56-.28-.98-.64s-.86-1.14-1.31-2.33c.13-.83.19-1.48.2-1.97s.02-.73 0-.75c.05-.41-.03-.7-.2-.88s-.38-.27-.61-.27h2.53l3 3v4.14z"/></svg>