<svg height="16" width="10" xmlns="http://www.w3.org/2000/svg"><path d="M10 5c0-1.11-.89-2-2-2s-2 .89-2 2c0 .73.41 1.38 1 1.72v.3c-.02.52-.23.98-.63 1.38s-.86.61-1.38.63c-.83.02-1.48.16-2 .45v-4.76c.59-.34 1-.98 1-1.72 0-1.11-.89-2-2-2s-1.99.89-1.99 2c0 .73.41 1.38 1 1.72v6.56c-.59.35-1 .99-1 1.72 0 1.11.89 2 2 2s2-.89 2-2c0-.53-.2-1-.53-1.36.09-.06.48-.41.59-.47.25-.11.56-.17.94-.17 1.05-.05 1.95-.45 2.75-1.25s1.2-1.98 1.25-3.02h-.02c.61-.36 1.02-1 1.02-1.73zm-8-3.2c.66 0 1.2.55 1.2 1.2s-.55 1.2-1.2 1.2-1.2-.55-1.2-1.2.55-1.2 1.2-1.2zm0 12.41c-.66 0-1.2-.55-1.2-1.2s.55-1.2 1.2-1.2 1.2.55 1.2 1.2-.55 1.2-1.2 1.2zm6-8c-.66 0-1.2-.55-1.2-1.2s.55-1.2 1.2-1.2 1.2.55 1.2 1.2-.55 1.2-1.2 1.2z"/></svg>