<svg height="16" width="12" xmlns="http://www.w3.org/2000/svg"><path d="M10 7c-.73 0-1.38.41-1.73 1.02v-.02c-1.05-.02-2.27-.36-3.13-1.02-.75-.58-1.5-1.61-1.89-2.44.45-.36.75-.92.75-1.55 0-1.11-.89-2-2-2s-2 .9-2 2.01c0 .73.41 1.38 1 1.72v6.56c-.59.35-1 .99-1 1.72 0 1.11.89 2 2 2s2-.89 2-2c0-.73-.41-1.38-1-1.72v-3.61c.67.7 1.44 1.27 2.3 1.69s2.03.63 2.97.64v-.02c.36.61 1 1.02 1.73 1.02 1.11 0 2-.89 2-2s-.89-2-2-2zm-6.8 6c0 .66-.55 1.2-1.2 1.2s-1.2-.55-1.2-1.2.55-1.2 1.2-1.2 1.2.55 1.2 1.2zm-1.2-8.8c-.66 0-1.2-.55-1.2-1.2s.55-1.2 1.2-1.2 1.2.55 1.2 1.2-.55 1.2-1.2 1.2zm8 6c-.66 0-1.2-.55-1.2-1.2s.55-1.2 1.2-1.2 1.2.55 1.2 1.2-.55 1.2-1.2 1.2z"/></svg>