<svg height="16" width="12" xmlns="http://www.w3.org/2000/svg"><path d="M5.5 0c-3.02 0-5.5 2.19-5.5 5 0 .92.55 2.25 1 3 1.34 2.25 1.78 2.78 2 4v1h5v-1c.22-1.22.66-1.75 2-4 .45-.75 1-2.08 1-3 0-2.81-2.48-5-5.5-5zm3.64 7.48c-.25.44-.47.8-.67 1.11-.86 1.41-1.25 2.06-1.45 3.23l-.02.17h-3l-.02-.17c-.2-1.17-.59-1.83-1.45-3.23-.2-.31-.42-.67-.67-1.11-.42-.7-.86-1.83-.86-2.48 0-2.2 2.02-4 4.5-4 1.22 0 2.36.42 3.22 1.19.83.75 1.28 1.75 1.28 2.81 0 .66-.44 1.78-.86 2.48zm-6.14 6.52h5c-.23 1.14-1.3 2-2.5 2s-2.27-.86-2.5-2z"/></svg>