<svg height="16" width="45" xmlns="http://www.w3.org/2000/svg"><path d="M8.64 5.19h-3.76c-.11 0-.19.08-.19.17v1.84c0 .09.08.17.19.17h1.47v2.3s-.33.11-1.25.11c-1.08 0-2.58-.39-2.58-3.7s1.58-3.73 3.05-3.73c1.27 0 1.81.22 2.17.33.11.03.2-.08.2-.17l.42-1.78-.06-.14c-.14-.09-1.02-.58-3.2-.58-2.52-.01-5.1 1.05-5.1 6.19s2.95 5.92 5.44 5.92c2.06 0 3.31-.89 3.31-.89.05-.02.06-.09.06-.13v-5.74c0-.09-.08-.17-.19-.17h.02zm19.06-4.75h-2.13c-.09 0-.17.08-.17.17v4.09h-3.31v-4.09c0-.09-.08-.17-.17-.17h-2.13c-.09 0-.17.08-.17.17v11.11c0 .09.09.17.17.17h2.13c.09 0 .17-.08.17-.17v-4.75h3.31l-.02 4.75c0 .09.08.17.17.17h2.13c.09 0 .17-.08.17-.17v-11.11c0-.09-.08-.17-.17-.17h.02zm-16.51.25c-.77 0-1.38.61-1.38 1.38s.61 1.38 1.38 1.38c.75 0 1.36-.61 1.36-1.38s-.61-1.38-1.36-1.38zm1.22 3.55c0-.09-.08-.17-.17-.17h-2.13c-.09 0-.17.09-.17.2v7.34c0 .2.13.27.3.27h1.92c.2 0 .25-.09.25-.27v-7.38zm23.52-.16h-2.09c-.11 0-.17.08-.17.19v5.44s-.55.39-1.3.39-.97-.34-.97-1.09v-4.75c0-.09-.08-.17-.17-.17h-2.14c-.09 0-.17.08-.17.17v5.11s1.23 2.75 2.92 2.75c1.39 0 2.52-.77 2.52-.77s.05.39.08.45c.02.05.09.09.16.09h1.34c.11 0 .17-.08.17-.17l.02-7.47c0-.09-.08-.17-.19-.17zm5.77-.25c-1.2 0-2.02.53-2.02.53v-3.77c0-.09-.08-.17-.17-.17h-2.13c-.09 0-.17.08-.17.17l-.02 11.11c0 .09.09.17.19.17h1.48c.06 0 .11-.02.14-.08.05-.06.09-.52.09-.52s.88.83 2.52.83c1.94 0 3.05-.98 3.05-4.41s-1.77-3.88-2.97-3.88zm-.83 6.27c-.73-.02-1.22-.36-1.22-.36v-3.52s.48-.3 1.08-.34c.77-.08 1.5.16 1.5 1.97 0 1.91-.33 2.28-1.36 2.25zm-22.33-.05c-.09 0-.33.05-.58.05-.78 0-1.05-.36-1.05-.83v-3.13h1.59c.09 0 .16-.08.16-.19v-1.7c0-.09-.08-.17-.16-.17h-1.59v-2.11c0-.08-.05-.13-.14-.13h-2.16c-.09 0-.14.05-.14.13v2.17s-1.09.27-1.16.28c-.08.02-.13.09-.13.17v1.36c0 .11.08.19.17.19h1.11v3.28c0 2.44 1.7 2.69 2.86 2.69.53 0 1.17-.17 1.27-.22.06-.02.09-.09.09-.16v-1.5c0-.11-.08-.19-.17-.19h.02z"/></svg>