<svg height="16" width="14" xmlns="http://www.w3.org/2000/svg"><path d="M4.75 4.95c.55.64 1.34 1.05 2.25 1.05s1.7-.41 2.25-1.05c.34.63 1 1.05 1.75 1.05 1.11 0 2-.89 2-2s-.89-2-2-2c-.41 0-.77.13-1.08.33-.31-1.33-1.5-2.33-2.92-2.33s-2.61 1-2.92 2.33c-.31-.2-.67-.33-1.08-.33-1.11 0-2 .89-2 2s.89 2 2 2c.75 0 1.41-.42 1.75-1.05zm5.2-1.52c.2-.38.59-.64 1.05-.64.66 0 1.2.55 1.2 1.2s-.55 1.2-1.2 1.2-1.17-.53-1.19-1.17c.06-.19.11-.39.14-.59zm-2.95-2.45c1.11 0 2.02.91 2.02 2.02s-.91 2.02-2.02 2.02-2.02-.91-2.02-2.02.91-2.02 2.02-2.02zm-4 4.22c-.66 0-1.2-.55-1.2-1.2s.55-1.2 1.2-1.2c.45 0 .84.27 1.05.64.03.2.08.41.14.59-.02.64-.53 1.17-1.19 1.17zm10 .8h-12c-.55 0-1 .45-1 1v3c0 .55.45 1 1 1v2c0 .55.45 1 1 1h1c.55 0 1-.45 1-1v-1h1v3c0 .55.45 1 1 1h2c.55 0 1-.45 1-1v-3h1v1c0 .55.45 1 1 1h1c.55 0 1-.45 1-1v-2c.55 0 1-.45 1-1v-3c0-.55-.45-1-1-1zm-10 7h-1v-3h-1v-3h2v6zm7-2h-1v-2h-1v6h-2v-6h-1v2h-1v-4h6v4zm3-1h-1v3h-1v-6h2v3z"/></svg>