<svg height="16" width="10" xmlns="http://www.w3.org/2000/svg"><path d="M8 1c-1.11 0-2 .89-2 2 0 .73.41 1.38 1 1.72v1.28l-2 2-2-2v-1.28c.59-.34 1-.98 1-1.72 0-1.11-.89-2-2-2s-2 .89-2 2c0 .73.41 1.38 1 1.72v1.78l3 3v1.78c-.59.34-1 .98-1 1.72 0 1.11.89 2 2 2s2-.89 2-2c0-.73-.41-1.38-1-1.72v-1.78l3-3v-1.78c.59-.34 1-.98 1-1.72 0-1.11-.89-2-2-2zm-6 3.2c-.66 0-1.2-.55-1.2-1.2s.55-1.2 1.2-1.2 1.2.55 1.2 1.2-.55 1.2-1.2 1.2zm3 10c-.66 0-1.2-.55-1.2-1.2s.55-1.2 1.2-1.2 1.2.55 1.2 1.2-.55 1.2-1.2 1.2zm3-10c-.66 0-1.2-.55-1.2-1.2s.55-1.2 1.2-1.2 1.2.55 1.2 1.2-.55 1.2-1.2 1.2z"/></svg>