<svg height="16" width="12" xmlns="http://www.w3.org/2000/svg"><path d="M11 6h-10c-.55 0-1 .45-1 1v2c0 .55.45 1 1 1h10c.55 0 1-.45 1-1v-2c0-.55-.45-1-1-1zm-9 3h-1v-2h1v2zm2 0h-1v-2h1v2zm2 0h-1v-2h1v2zm2 0h-1v-2h1v2zm3-8h-10c-.55 0-1 .45-1 1v2c0 .55.45 1 1 1h10c.55 0 1-.45 1-1v-2c0-.55-.45-1-1-1zm-9 3h-1v-2h1v2zm2 0h-1v-2h1v2zm2 0h-1v-2h1v2zm2 0h-1v-2h1v2zm3-1h-1v-1h1v1zm0 8h-10c-.55 0-1 .45-1 1v2c0 .55.45 1 1 1h10c.55 0 1-.45 1-1v-2c0-.55-.45-1-1-1zm-9 3h-1v-2h1v2zm2 0h-1v-2h1v2zm2 0h-1v-2h1v2zm2 0h-1v-2h1v2z"/></svg>