<svg height="16" width="16" xmlns="http://www.w3.org/2000/svg"><path d="M8 0c-4.42 0-8 3.58-8 8s3.58 8 8 8 8-3.58 8-8-3.58-8-8-8zm4.81 12.81c-.63.63-1.36 1.11-2.17 1.45-.83.36-1.72.53-2.64.53s-1.81-.17-2.64-.53c-.81-.34-1.55-.83-2.17-1.45s-1.11-1.36-1.45-2.17c-.36-.83-.53-1.72-.53-2.64s.17-1.81.53-2.64c.34-.81.83-1.55 1.45-2.17s1.36-1.11 2.17-1.45c.83-.36 1.72-.53 2.64-.53s1.81.17 2.64.53c.81.34 1.55.83 2.17 1.45s1.11 1.36 1.45 2.17c.36.83.53 1.72.53 2.64s-.17 1.81-.53 2.64c-.34.81-.83 1.55-1.45 2.17zm-8.81-7.01v-.59c0-.66.53-1.19 1.2-1.19h.59c.66 0 1.19.53 1.19 1.19v.59c0 .67-.53 1.2-1.19 1.2h-.59c-.67 0-1.2-.53-1.2-1.2zm5 0v-.59c0-.66.53-1.19 1.2-1.19h.59c.66 0 1.19.53 1.19 1.19v.59c0 .67-.53 1.2-1.19 1.2h-.59c-.67 0-1.2-.53-1.2-1.2zm4 4.2c-.72 1.88-2.91 3-5 3s-4.28-1.13-5-3c-.14-.39.23-1 .66-1h8.59c.41 0 .89.61.75 1z"/></svg>