<svg height="16" width="16" xmlns="http://www.w3.org/2000/svg"><path d="M15.98 7.83l-.97-5.95c-.17-1.38-1.88-1.88-3.01-1.88h-6.31c-.2 0-.38.05-.53.14l-1.44.86h-1.72c-1.06 0-2 .94-2 2v4c0 1.06.94 2.02 2 2h2c.91 0 1.39.45 2.39 1.55.91 1 .88 1.8.63 3.27-.08.5.06 1 .42 1.42.39.47.98.77 1.56.77 1.83 0 3-3.72 3-5.02l-.02-.98h2.04c1.16 0 1.95-.8 1.98-1.97 0-.06.02-.13-.02-.2zm-1.97 1.19h-1.99c-.7 0-1.03.28-1.03.97l.03 1.03c0 1.27-1.17 4-2 4-.5 0-1.08-.5-1-1 .25-1.58.34-2.78-.89-4.14-1.02-1.13-1.77-1.88-3.13-1.88v-6l1.67-1h6.33c.73 0 1.95.31 2 1l.02.02 1 6c-.03.64-.38 1-1 1z"/></svg>