<svg height="16" width="16" xmlns="http://www.w3.org/2000/svg"><path d="M14 6h-2.02l.02-.98c0-1.3-1.17-5.02-3-5.02-.58 0-1.17.3-1.56.77-.36.41-.5.91-.42 1.41.25 1.48.28 2.28-.63 3.28-1 1.09-1.48 1.55-2.39 1.55h-2c-1.06-.01-2 .93-2 1.99v4c0 1.06.94 2 2 2h1.72l1.44.86c.16.09.33.14.52.14h6.33c1.13 0 2.84-.5 3-1.88l.98-5.95.02-.2c-.03-1.17-.84-1.97-2-1.97zm0 8c-.05.69-1.27 1-2 1h-6.33l-1.67-1v-6c1.36 0 2.11-.75 3.13-1.88 1.23-1.36 1.14-2.56.88-4.13-.08-.5.5-1 1-1 .83 0 2 2.73 2 4l-.02 1.03c0 .69.33.97 1.02.97h2c.63 0 .98.36 1 1l-1 6z"/></svg>