<svg height="16" width="16" xmlns="http://www.w3.org/2000/svg"><path d="M15.67 7.06l-1.08-1.34c-.17-.22-.28-.48-.31-.77l-.19-1.7c-.08-.7-.63-1.25-1.33-1.33l-1.7-.19c-.3-.03-.56-.16-.78-.33l-1.34-1.08c-.55-.44-1.33-.44-1.88 0l-1.34 1.08c-.22.17-.48.28-.77.31l-1.7.19c-.7.08-1.25.63-1.33 1.33l-.19 1.7c-.03.3-.16.56-.33.78l-1.08 1.34c-.44.55-.44 1.33 0 1.88l1.08 1.34c.17.22.28.48.31.77l.19 1.7c.08.7.63 1.25 1.33 1.33l1.7.19c.3.03.56.16.78.33l1.34 1.08c.55.44 1.33.44 1.88 0l1.34-1.08c.22-.17.48-.28.77-.31l1.7-.19c.7-.08 1.25-.63 1.33-1.33l.19-1.7c.03-.3.16-.56.33-.78l1.08-1.34c.44-.55.44-1.33 0-1.88zm-6.67 4.44c0 .28-.22.5-.5.5h-1c-.27 0-.5-.22-.5-.5v-1c0-.28.23-.5.5-.5h1c.28 0 .5.22.5.5v1zm1.56-4.89c-.06.17-.17.33-.3.47-.13.16-.14.19-.33.38-.16.17-.31.3-.52.45l-.28.27s-.14.17-.19.27l-.11.3-.03.25h-1.67c0-.22 0-.31.03-.48.03-.19.08-.36.14-.52.06-.14.14-.28.25-.42.11-.13.23-.25.41-.38.27-.19.36-.3.48-.52s.2-.38.2-.59c0-.27-.06-.45-.2-.58-.13-.13-.31-.19-.58-.19-.09 0-.19.02-.3.05l-.25.16s-.14.11-.2.2-.09.14-.09.28h-2c0-.38.13-.56.27-.83.16-.27.36-.5.61-.67s.55-.3.88-.38.7-.13 1.09-.13c.44 0 .83.05 1.17.13.34.09.63.22.88.39.23.17.41.38.55.63.13.25.19.55.19.88 0 .22 0 .42-.08.59z"/></svg>